<?xml version="1.0" encoding="utf-8"?>
<!-- Generator: Adobe Illustrator 25.2.0, SVG Export Plug-In . SVG Version: 6.00 Build 0)  -->
<svg version="1.1" id="Слой_1" xmlns="http://www.w3.org/2000/svg" xmlns:xlink="http://www.w3.org/1999/xlink" x="0px" y="0px"
	 viewBox="0 0 480 480" style="enable-background:new 0 0 480 480;" xml:space="preserve">
<path d="M25.94,480c-1.27-9.49-1.94-19.16-1.94-29c0-119.29,96.71-216,216-216s216,96.71,216,216c0,9.84-0.67,19.51-1.94,29h24.19
	c1.15-9.51,1.75-19.18,1.75-29c0-132.55-107.45-240-240-240S0,318.45,0,451c0,9.82,0.6,19.49,1.75,29H25.94z"/>
<path d="M239.5,0C181.23,0,134,47.23,134,105.5S181.23,211,239.5,211S345,163.77,345,105.5S297.77,0,239.5,0z M239.18,192
	c-47.92,0-86.77-38.85-86.77-86.77c0-47.92,38.85-86.77,86.77-86.77c47.92,0,86.77,38.85,86.77,86.77
	C325.94,153.15,287.1,192,239.18,192z"/>
</svg>
