<?xml version="1.0" encoding="utf-8"?>
<!-- Generator: Adobe Illustrator 25.2.0, SVG Export Plug-In . SVG Version: 6.00 Build 0)  -->
<svg version="1.1" id="Capa_1" xmlns="http://www.w3.org/2000/svg" xmlns:xlink="http://www.w3.org/1999/xlink" x="0px" y="0px"
	 viewBox="0 0 53.94 53.94" style="enable-background:new 0 0 53.94 53.94;" xml:space="preserve">
<style type="text/css">
	.st0{fill:#FFFFFF;}
</style>
<path class="st0" d="M53.36,40.91c-2.01-3.8-8.98-7.91-9.29-8.09c-0.9-0.51-1.83-0.78-2.71-0.78c-1.3,0-2.37,0.6-3.01,1.68
	c-1.02,1.22-2.28,2.65-2.59,2.87c-2.38,1.61-4.24,1.43-6.29-0.63L17.99,24.47c-2.05-2.05-2.23-3.93-0.63-6.29
	c0.22-0.31,1.65-1.58,2.87-2.6c0.78-0.46,1.31-1.15,1.55-1.99c0.31-1.12,0.08-2.44-0.65-3.73c-0.17-0.3-4.29-7.27-8.09-9.28
	C12.33,0.2,11.53,0,10.73,0C9.41,0,8.17,0.52,7.24,1.45L4.7,3.99C0.69,8-0.77,12.55,0.38,17.51c0.96,4.13,3.74,8.53,8.28,13.07
	l14.7,14.7c5.75,5.75,11.22,8.66,16.28,8.66c0,0,0,0,0,0c3.72,0,7.19-1.58,10.31-4.7l2.54-2.54C54.03,45.16,54.38,42.83,53.36,40.91
	z"/>
</svg>
